<?xml version="1.0" standalone="no"?>
<!DOCTYPE svg PUBLIC "-//W3C//DTD SVG 20010904//EN"
 "http://www.w3.org/TR/2001/REC-SVG-20010904/DTD/svg10.dtd">
<svg version="1.0" xmlns="http://www.w3.org/2000/svg"
 width="512.000000pt" height="512.000000pt" viewBox="0 0 512.000000 512.000000"
 preserveAspectRatio="xMidYMid meet">
<metadata>
Created by potrace 1.16, written by Peter Selinger 2001-2019
</metadata>
<g transform="translate(0.000000,512.000000) scale(0.100000,-0.100000)"
fill="#000000" stroke="none">
<path d="M3315 5105 c-27 -8 -83 -31 -125 -51 -89 -45 -66 -22 -1056 -1029
-1155 -1175 -1076 -1092 -1116 -1170 -49 -95 -68 -174 -68 -287 0 -149 44
-278 128 -380 61 -73 1934 -1976 2010 -2041 74 -65 179 -119 260 -136 75 -15
227 -13 292 4 106 28 192 80 294 176 113 107 187 213 218 312 31 96 32 283 4
367 -44 132 -69 165 -306 402 -144 144 -240 233 -263 243 -52 22 -139 19 -187
-5 -81 -41 -122 -136 -100 -232 11 -51 20 -61 226 -264 222 -219 244 -248 244
-324 0 -58 -28 -105 -112 -187 -77 -76 -110 -94 -169 -95 -87 -1 -58 -28
-1104 1035 -547 556 -1001 1025 -1010 1043 -19 40 -19 114 0 159 9 23 360 386
996 1031 540 548 993 1003 1006 1011 13 9 43 18 68 20 82 10 110 -2 197 -85
114 -108 140 -177 102 -270 -11 -30 -218 -238 -840 -848 -502 -491 -833 -823
-845 -846 -25 -50 -25 -136 0 -187 23 -44 605 -617 654 -643 37 -20 131 -24
174 -7 38 14 92 67 109 106 17 38 18 120 3 160 -5 15 -112 130 -235 254 l-225
226 739 726 c407 399 754 744 771 766 74 93 121 238 121 370 -1 153 -50 279
-161 409 -125 147 -248 232 -384 267 -73 19 -241 18 -310 0z"/>
</g>
</svg>
